<?xml version="1.0" standalone="no"?><!DOCTYPE svg PUBLIC "-//W3C//DTD SVG 1.1//EN"
        "http://www.w3.org/Graphics/SVG/1.1/DTD/svg11.dtd">
<svg class="icon" width="200px" height="200.00px" viewBox="0 0 1024 1024" version="1.1"
     xmlns="http://www.w3.org/2000/svg">
    <path d="M1024 513.460907C1024 232.362667 795.951787 4.481707 514.645333 4.481707 233.325227 4.481707 5.280427 232.362667 5.280427 513.460907c0 259.669333 194.59072 473.9072 445.999786 505.081173 14.17216 2.983253 31.4368 4.727467 51.995307 4.727467 5.768533 0 11.33568-0.3072 16.71168-0.853334C798.836053 1019.5456 1024 792.79104 1024 513.460907z m-72.833707 7.205546a499.258027 499.258027 0 0 0-9.92256-74.41408c0.45056-8.625493 0.57344-16.80384 0.344747-24.395093a437.742933 437.742933 0 0 1 9.577813 98.809173z m-873.120426-7.205546c0-30.846293 3.211947-60.94848 9.304746-89.98912 18.855253 20.165973 63.296853 19.694933 74.1376-10.437974 19.387733 11.554133 45.44512 13.66016 45.44512 36.758187 0 76.2368 2.7136 157.969067 71.9872 159.232 1.9456 0.023893 38.62528 13.892267 56.087894 59.173547 6.0416 15.64672 29.907627 0 56.081066 0 13.079893 0 0 22.016 0 69.632 0 47.43168 102.26688 120.470187 102.26688 120.470186-0.47104 31.389013 0.815787 56.7808 3.426987 77.056-23.08096-0.423253-42.533547 2.63168-57.81504 7.840427-205.056-35.805867-360.922453-214.575787-360.922453-429.735253z m544.085333 422.946133c-2.269867-11.083093-12.168533-17.152-30.22848-12.40064 14.40768-61.385387 21.41184-95.781547 51.514027-121.88672 43.537067-37.74464 5.18144-79.714987-27.951787-74.769067-26.105173 3.9424-9.60512-32.331093-32.918187-34.341546-23.313067-1.952427-53.74976-48.31232-87.292586-64.262827-17.783467-8.444587-35.25632-31.074987-62.682454-32.09216-24.306347-0.935253-59.828907 20.555093-59.828906 3.990187 0-53.377707-5.403307-91.46368-6.509227-106.67008-0.90112-12.21632-7.994027-4.113067 24.859307-3.324587 17.892693 0.474453 9.157973-35.92192 26.856106-37.338453 17.38752-1.375573 58.80832 16.267947 69.362347 9.239893 9.80992-6.5536 72.07936 163.45088 72.07936 28.095147 0-16.059733-8.321707-43.9808 0-59.190614 32.887467-60.101973 63.685973-109.093547 60.914347-116.261546-1.559893-4.03456-33.645227-7.359147-59.32032 1.245866-8.659627 2.89792 2.75456 16.469333-9.68704 19.367254-46.619307 10.758827-87.811413-12.57472-73.393494-34.5088 14.77632-22.473387 68.293973-9.79968 72.987307-54.893227 2.70336-25.82528 4.93568-55.749973 6.434133-77.981013 62.743893 9.816747 55.831893-81.42848-37.461333-91.19744 188.747093 2.205013 348.69248 124.101973 407.384747 293.28384-2.962773-2.7136-6.42048-4.358827-10.410667-4.7616-28.20096-70.46144-96.672427-19.469653-73.454933 42.676906-124.439893 95.66208-92.593493 162.389333-51.698347 200.594774 21.51424 20.084053 42.028373 50.281813 55.381333 71.980373-14.537387 42.390187 53.558613 25.41568 87.1424-46.516907-42.717867 148.155733-161.8944 263.929173-312.077653 301.922987z m0 0"/>
</svg>
